<?xml version="1.0" encoding="utf-8"?>
<!-- Generator: Adobe Illustrator 22.1.0, SVG Export Plug-In . SVG Version: 6.00 Build 0)  -->
<svg version="1.1" id="Calque_1" xmlns="http://www.w3.org/2000/svg" xmlns:xlink="http://www.w3.org/1999/xlink" x="0px" y="0px"
	 viewBox="0 0 1920 1080" style="enable-background:new 0 0 1920 1080;" xml:space="preserve">
<style type="text/css">
	.st0{fill:#FFE1DD;}
	.st1{fill:#F2D1C8;}
	.st2{fill:#D49E8E;}
	.st3{fill:#96A6E0;}
	.st4{fill:#13285E;}
	.st5{fill:#E0AC9B;}
	.st6{fill:#0E1D45;}
	.st7{fill:#00BAED;}
	.st8{fill:#FFFFFF;}
	.st9{opacity:0.2;fill:#FFFFFF;enable-background:new    ;}
	.st10{opacity:0.35;fill:#FFFFFF;enable-background:new    ;}
</style>
<g>
	<path class="st0" d="M1051.1,782.1H868.9V501.9h182.2V782.1z M1051.1,479v7.1h-81.9l62.8-62.8C1043.9,438.7,1051.1,458,1051.1,479z
		 M1027.4,417.8l-63.9,63.9V388C988.8,389,1011.5,400.3,1027.4,417.8z M956.5,388v93.7l-63.9-63.9C908.5,400.3,931.2,389,956.5,388z
		 M868.9,479c0-21,7.1-40.3,19.1-55.8l62.8,62.8h-81.9L868.9,479L868.9,479z"/>
	<path class="st1" d="M982.3,366.1l-1.8,9.2l-1.1,5.5l5.4,1.2c22.5,4.9,42.9,17.5,57.6,35.4c14.9,18.2,23,41.2,23,64.6v314.4h-0.3
		H854.9h-0.3V482c0-23.5,8.2-46.4,23-64.6c14.6-18,35.1-30.5,57.6-35.4l5.4-1.2l-1.1-5.5l-1.8-9.2L982.3,366.1 M985.6,360.4h-51.2
		l-3,3l2.6,13c-48.6,10.6-85,53.9-85,105.6v320.1h6h210.2h6V482c0-51.7-36.5-95-85-105.6l2.6-13L985.6,360.4L985.6,360.4z"/>
	<g id="XMLID_1_">
		<g>
			<path class="st2" d="M938.2,739.3c-0.5-0.5-1.6-0.9-1.8-0.2l-9.9-2.2c-3.5,4.2-19.1,26.4-19.9,28.4c-0.3,0.8,4.4,5.5,4.7,5.9
				c2.2,2.8,6.8-2.4,10.2-3.2c4.8-1.1,9.8-4,13.6-7c4.3-3.3,10.2-6.7,14.4-10.2C947.4,746.9,941.6,742.4,938.2,739.3z"/>
			<path class="st3" d="M929.2,765c0,0-10.8,3.5-15,0.6c-2.3-1.5-4-4.2-5.8-6.3c-4.7,3.3-11.5,9.1-19.2,10.7
				c-3.5,0.7-7.2,1.3-10.2,3.2c-0.6,0.4-1.1,0.9-1.4,1.5c-0.3,0.7-0.1,1.5,0.1,2.3c0.7,2.2,2.5,4,4.7,4.7c1.6,0.5,3.2,0.6,4.9,0.6
				c14,0.1,26.1,0.4,39.9-1.3c0.8-0.1,1.7-0.3,2.2-0.9c0.3-0.4,0.4-1,0.5-1.5C930.6,773.4,930.9,769.8,929.2,765z"/>
			<path class="st4" d="M990.5,711.1c-2.9,9.8-7.6,12-14.4,19.6c-8.7,9.8-18.8,18.3-29.9,25.4c-0.3,0.2-5.2,3.6-5.2,3.6
				s-14.6-12.7-20.4-17.1c2.8-4.4,22-29.5,35.2-40.8c5.9-5.1,9.5-5.5,17.2-6.5C982,694.2,992.8,710.2,990.5,711.1z"/>
			<path class="st4" d="M1046.5,760.5c1.6-4.1,1.7-8.9,2.7-13.2c-10-4.5-20.4-12-29.4-18.3c-12-8.3-25.4-21.1-35.8-28.7
				c-3.5-2.5-2.1-1.5-5.9-3.7c-3.7-2.2-8.1-3.5-12.3-2.7l-10.6,8.9c-1.1,7.1,1.8,14.2,5.5,20.3c4.1,6.8,9.6,11.7,13.2,18.8
				c4.1,8.2,10.4,15.2,16.8,21.7c3.9,4,7.9,7.9,12.7,10.7c6.7,4,14.7,5.5,22.4,4.7c7.7-0.9,14.2-5,18.8-11.3
				C1046,765.7,1045.6,762.8,1046.5,760.5z"/>
		</g>
		<g id="XMLID_84_">
			<path class="st5" d="M1022.6,643.2c0.2-5.1,1.3-10.8,0.5-11.6c-2.5-2.5-7.7-4.4-11.2-4.6c-7.1-0.6-11.5-0.1-14.3,12.2
				c-1.2,5.1-0.4,6.3,0.6,8.6c0.8,1.8,2.4,3,5.5,4c1.1,8.7,3.7,29.8,3.7,29.9c3.1,4.8-1,6.1,4.6,7.2c5.7,1.1,11.6,0.3,17.1-1.6
				c5.5-1.9,7.1-5.8,12-8.8C1028.1,656,1023.9,646.8,1022.6,643.2z"/>
			<g id="XMLID_107_">
				<g id="XMLID_108_">
					<g id="XMLID_109_">
						<g id="XMLID_111_">
							<g id="XMLID_112_">
								<path class="st3" d="M1007,636.3c-0.1-0.9-0.6-2.4-1-3.2c-0.6-1-1.4-1.5-2.2-2.3c-0.9-0.9-1.2-1.8-1.4-2.9
									c0-0.1,0-0.1,0-0.2c0.4-0.4,5.7-2.6,8.2-1.7c2.6,0.9,5.1,1.8,7.6,2.9c2.1,0.9,5.8,1.3,6,3.9c0.2,2.6-0.8,5.9-0.9,8.5
									c-0.1,1.9-2.5,2.6-3.7,1.5c-0.9-0.4-1.6-1.3-2-2.4c-0.2-0.5-0.3-1.1-0.3-1.6c0-0.6,0-1.2,0-1.7c-0.1-2-1.9-2.5-2.3-2.6
									c-1.7-0.2-3.5,1.7-4.8,2.7L1007,636.3z"/>
							</g>
						</g>
					</g>
				</g>
			</g>
			<path class="st4" d="M996.3,646.3c0.1-0.3,0.8-0.3,1.4-0.2c0.3,0,0.5,0.2,0.7,0.2c0.3,0,0.5-0.3,0.4-0.6
				c-0.1-0.5-0.5-1.2-1.4-1.1c-1,0-1.5-0.6-1.3-1.2c0-0.2,0-0.3,0-0.5c0-0.1,0.5-0.9,1.7-1l0,0c0.1,0,0.1,0,0.2,0l0,0
				c1.2,0,2.2,0.6,3,1.5c0.2,0.3,0.4,0.5,0.5,0.8c0,0.1,0.1,0.2,0.1,0.3c0.2,0.3,0.2,0.6,0.6,0.8c0.4,0.2,0.7,0.1,1.1-0.2
				c0.1-0.1,0.1-0.1,0.2-0.2c1-1.9,2.6-6.4,3.4-8.5l3,0.9c0,0-0.5,1-1,1.8c-0.8,2.5-0.9,4.9-0.5,7.4c0.4,1.1,0.9,2.1,0.9,3.2
				c0,2.6-2.6,3.6-5,4.2c-0.6,0.2-1.3,0.4-2,0.6c-0.2,0.1-0.5,0.2-0.7,0.2c-1.8,0.6-3.3,0.9-4.6-0.2c-0.2,0-0.3-0.1-0.5-0.3
				C994.7,652.3,995.3,648.6,996.3,646.3z M1027.9,619.8c-1.9-1.6-4.7-1.4-6.3,0.5c-0.9,1-1,3.3-1,5.2c-0.5-0.5-1.1-0.9-1.7-1.3
				h-0.1c-3.3-1.7-7-2.6-10.7-2.4h-0.1c-1.5,0.1-3,0.6-4.2,1.6c-0.2,0.1-0.3,0.3-0.5,0.5c-2,2.1-1.4,5,0.4,6.9
				c4-1,11.1-1.1,19.7,8.3c0.2,0.2,3.4-4.1,2-7.2c-0.6-1.4-1.5-2.7-2.4-3.9c1.9-0.2,4.5-0.7,5.5-1.9
				C1030.1,624.3,1029.8,621.4,1027.9,619.8z"/>
		</g>
		<path class="st3" d="M1054.7,718.3c-0.3-8.9-1.1-17.9-3.7-26.5s-7.2-20-15.3-27.4c-2-1.8-4-2.8-9.2-2c-5,0.7-14.2,4.3-18.2,7.6
			c-2.7,2.1-3.7,4-3.6,8.1c0.7,20.1,10.7,32.2,5.1,56.1c-0.3,1.4,0.4,1.2,1.8,2.1c11.5,7.1,23.8,13.3,36.5,18.3
			c0.3,0.1,0.6,0.2,0.9,0.1c0.3-0.2,0.1-0.7-0.2-0.6l3.2-2.2C1054.7,741.8,1055,728.6,1054.7,718.3z"/>
		<g>
			<path class="st5" d="M925.3,743.6c-0.5-0.6-1.5-1.1-1.8-0.4l-7.9-2.6c-4,3.9-8.4,8.5-12.1,12.7c-5.2,5.9-12.4,11.1-13.4,13
				c-0.4,0.8,3.8,6.1,4.1,6.6c1.9,3.1,7.2-1.6,10.8-2c5.1-0.5,10.4-2.9,14.7-5.4c4.8-2.9,11.2-5.5,15.9-8.6
				C933.6,752.5,928.3,747.2,925.3,743.6z"/>
			<path class="st3" d="M915.8,767.4c0,0-10.9,3-15,0c-2.2-1.6-3.9-4.4-5.6-6.5c-4.9,3.1-11.9,8.7-19.6,9.9c-3.5,0.6-7.2,1-10.3,2.8
				c-0.6,0.4-1.2,0.8-1.5,1.5s-0.2,1.5,0,2.3c0.7,2.2,2.4,4.1,4.5,4.9c1.5,0.6,3.2,0.7,4.9,0.8c14,0.6,26,1.4,40,0.2
				c0.8-0.1,1.7-0.2,2.2-0.8c0.3-0.4,0.5-0.9,0.5-1.5C916.8,776,917.2,772.3,915.8,767.4z"/>
			<path class="st4" d="M984.2,715c-4.2,9.6-11.4,17.5-19.3,24.5c-10.1,8.9-21.4,16.4-33.5,22.2c-0.3,0.1-2.5,1.2-2.5,1.2
				s-11.6-15.2-17-20.3c3.4-4.1,9-9.6,12.6-13.6c8.5-9.4,14.5-14.3,23.2-21.4c6.2-5,13.7-9.2,21.7-9.2c9.2,0,18,6.1,21.3,14.6
				c-0.3,0.8-0.7,1.5-1,2.3C987.4,714.6,986.6,714.4,984.2,715z"/>
			<path class="st4" d="M1052.6,749.3c-10-4.4-22.4-10.3-31.5-16.5c-12.1-8.2-25.6-20.8-36.2-28.2c-3.5-2.5-2.2-1.5-5.9-3.6
				s-8.2-3.4-12.4-2.5l-10.5,9c-1,7.1,1.9,14.2,5.7,20.2c4.2,6.7,9,11.8,13.4,18.6c5,7.7,10.6,15.1,17,21.5c4,3.9,8,7.8,12.9,10.5
				c6.7,3.9,14.8,5.4,22.5,4.4c7.7-1,15.2-4.5,18.7-11.5C1050,764,1051.8,753.6,1052.6,749.3z"/>
			<path class="st4" d="M916,782l-0.6-0.1c1.3-6.6,1.3-11.2,0-14.4l-0.1-0.2l0.2-0.1c3.7-2,14.6-7.7,14.7-7.8l0.3,0.5
				c-0.1,0.1-10.6,5.6-14.5,7.7C917.3,770.9,917.3,775.5,916,782z"/>
			<path class="st3" d="M1012.6,726.3l-29.4-23.5l0.3-0.4l29.4,23.5L1012.6,726.3z M942.4,756c1.6-1,3.5-2.1,5.2-3.2
				c10.5-6.7,19-14.6,20.5-16l0.9,1.2l0.4-0.3l-1.3-1.7l-0.2,0.2c-0.1,0.1-9.2,8.8-20.6,16.1c-1.7,1.1-3.6,2.2-5.2,3.1
				c-1.4,0.8-2.7,1.6-3.4,2l0.3,0.5C939.7,757.6,941,756.9,942.4,756z"/>
		</g>
		<g>
			<g>
				<path class="st5" d="M972.3,656.1c-0.2-1.4-1.2-2.4-2.5-3.1c0.5-0.4,1-0.9,1.5-1.3c0.8-0.7,0.1-1.6-0.7-1.8l0,0
					c1.3-0.7,0-2.6-1.2-1.9l0,0c-0.1-0.6-0.4-1.8-1.2-1.9c-3.8-0.4-8.5,6.3-9.6,8.7c-0.8,1.4-1,2.4-1.4,4c-0.5,1.9-1.7,9.2-0.7,12.5
					c0.9,0.8,7.5-2,8.5-2.9c1.2-1,3.9,2.8,4.2,1.3l-1.5-9.1c1.1-1.2,1.5-0.5,2.8-1.6c0.9-0.8,1.5-1.7,1.8-2.7
					C972.3,656.2,972.3,656.1,972.3,656.1z"/>
				<g>
					<path class="st6" d="M973.9,656.5l-3.2,3.7c-0.5,0.6-1.5,0.3-1.5-0.5l-2.7-23.6c0-0.2,0-0.5,0.2-0.7l3.5-4.1
						c0.4-0.4,1.1-0.2,1.2,0.4l2.8,24.1C974.1,656.1,974,656.3,973.9,656.5z"/>
					<path class="st7" d="M970.9,631.2c-0.7-0.3-0.8-0.4-1.4,0.3l-3.2,3.7c-0.2,0.3-0.3,0.6-0.3,1l2.7,23.6c0.1,0.5,0.4,0.9,0.9,0.9
						c0.3,0,0.4-0.1,0.6-0.2h-0.5c-0.1,0-0.2-0.5-0.2-0.8l-2.7-23.6c0-0.1,0-0.3,0.1-0.4l3.2-3.7c0.5-0.5,0.8-0.8,1-0.7
						C971.1,631.4,971.1,631.3,970.9,631.2z"/>
				</g>
				<g id="XMLID_19_">
					<g id="XMLID_20_">
						<g id="XMLID_21_">
							<g id="XMLID_22_">
								<path class="st5" d="M971.5,649.3c-1.1,3.5-3.5,5.9-5.9,8.4c-1.7,1.7,1.3,4,3,2.3c3-3.1,5-4.8,5.6-9.2
									C974.5,648.1,972.1,647.4,971.5,649.3z"/>
							</g>
						</g>
					</g>
				</g>
			</g>
			<path class="st3" d="M1031.5,665.8c-2-1-2.5,4.7-4.8,4.7c-8.4-0.3-20.7,0.7-24.6,4.3c-2.5,2.2-4.6,3.5-7.7,4.6
				c-4.6,1.6-8.8,3.9-12.9,6.5c-1,0.6-2,1.3-2.9,1.9c-1.3-4.4-2.7-8.2-3.7-10.2c-2-4.2-4.2-10-5.2-13.1c-4.5,0.6-9,1.3-13.5,1.9
				c-0.5,0.1-0.9,0.2-1.4,0.3c0.3,5.4,0.4,13.2,0.7,14.5c0.6,3.3,1,6.7,1.6,9.9c1.5,8.1,4.8,19.3,14.2,22.4c2.2,0.7,4,0.8,5.4,0.5
				c0.8,0,1.6-0.1,2.4-0.2c7.8-0.9,19-4.1,28-7.4c6.4-2.3,21.1-6.5,26.2-11.1c6.3-5.7,4.9-12.1,7.7-20.2
				C1041,675,1033.3,666.6,1031.5,665.8z"/>
			<path class="st4" d="M973,711.2c-0.6,0-1.2-0.2-1.8-0.5c-0.7-0.4-1.4-0.8-1.9-1.4l0.4-0.3c0.5,0.5,1.1,1,1.8,1.3
				c0.5,0.2,1.6,0.7,2.5,0.2c0-0.1,0-0.2,0.1-0.2c0.1-0.1,0.2-0.1,0.3,0c0.1,0,0.2,0.1,0.2,0.3c0,0.1,0,0.3-0.2,0.4
				C973.9,711.1,973.4,711.2,973,711.2z M974,710.5L974,710.5c0,0.1,0.1,0.1,0.1,0.2c0.1,0,0.1,0,0.2,0c0.1,0,0.1-0.1,0.1-0.2H974z
				 M1010,705.4l-0.3-0.4c3.4-2,7-4.1,10.2-6.6c3.1-2.5,5.8-5.3,8.1-8.6l0.4,0.3c-2.3,3.3-5.1,6.2-8.2,8.7
				C1017,701.3,1013.4,703.4,1010,705.4z M1017.7,670.7c1.1,0.1,2.6,0.3,3.7,1.1l0.3-0.4c-1.2-0.9-2.7-1.1-3.9-1.2
				c-6.8-0.5-13.8,2-18.8,6.8l0.3,0.4C1004.1,672.7,1011,670.2,1017.7,670.7z"/>
		</g>
	</g>
	<g>
		<path class="st1" d="M960,378c-55.8,0-101,45.2-101,101v313h202V479C1061,423.2,1015.8,378,960,378z M1051.1,782.1H868.9V501.9
			h182.2V782.1z M1051.1,479v7.1h-81.9l62.8-62.8C1043.9,438.7,1051.1,458,1051.1,479z M1027.4,417.8l-63.9,63.9V388
			C988.8,389,1011.5,400.3,1027.4,417.8z M956.5,388v93.7l-63.9-63.9C908.5,400.3,931.2,389,956.5,388z M868.9,479
			c0-21,7.1-40.3,19.1-55.8l62.8,62.8h-81.9L868.9,479L868.9,479z"/>
		<path class="st8" d="M983,373.4l2.6-13c-8.3-1.6-16.9-2.5-25.6-2.5s-17.3,0.9-25.6,2.5l2.6,13c-48.6,10.6-85.1,53.9-85.1,105.6
			v320.1h216.2V479C1068.1,427.3,1031.6,384,983,373.4z M1030.3,416.9l-56,56c-3.5-3.1-8-5-12.9-5.3v-82.4
			C988.8,385.5,1013.4,397.7,1030.3,416.9z M958.6,385.1v82.4c-4.9,0.3-9.4,2.3-12.9,5.3l-56-56
			C906.6,397.7,931.2,385.5,958.6,385.1z M866.1,479c0-22.8,8.2-43.7,21.7-60l55.9,55.9c-2.5,2.8-4.2,6.2-5,10h-72.6L866.1,479
			L866.1,479z M1053.9,784.9H866.1V499.1h187.8V784.9z M981.3,484.9c-0.8-3.8-2.5-7.2-5-10l55.9-55.9c13.6,16.3,21.7,37.2,21.7,60
			v5.9H981.3z"/>
		<g>
			<path class="st9" d="M859,700.3v-71.4L1061,492v71.4L859,700.3z M1061,700v-70.3L859,766.6V792h66.3L1061,700z"/>
			<path class="st10" d="M928.3,597.3v-3.5l132.7-89.9v3.5L928.3,597.3z M991.7,569.4v-3.5l-132.7,90v3.5L991.7,569.4z"/>
		</g>
	</g>
</g>
</svg>
