<?xml version="1.0" encoding="utf-8"?>
<!-- Generator: Adobe Illustrator 22.1.0, SVG Export Plug-In . SVG Version: 6.00 Build 0)  -->
<svg version="1.1" id="Calque_1" xmlns="http://www.w3.org/2000/svg" xmlns:xlink="http://www.w3.org/1999/xlink" x="0px" y="0px"
	 viewBox="0 0 1920 1080" style="enable-background:new 0 0 1920 1080;" xml:space="preserve">
<style type="text/css">
	.st0{fill:#FFE1DD;}
	.st1{fill:#F2D1C8;}
	.st2{fill:#96A6E0;}
	.st3{fill:#13285E;}
	.st4{fill:#E0AC9B;}
	.st5{fill:#D49E8E;}
	.st6{fill:#FFFFFF;}
	.st7{opacity:0.2;fill:#FFFFFF;enable-background:new    ;}
	.st8{opacity:0.35;fill:#FFFFFF;enable-background:new    ;}
</style>
<g>
	<path class="st0" d="M1051.1,782.1H868.9V501.9h182.2V782.1z M1051.1,479v7.1h-81.9l62.8-62.8C1043.9,438.7,1051.1,458,1051.1,479z
		 M1027.4,417.8l-63.9,63.9V388C988.8,389,1011.5,400.3,1027.4,417.8z M956.5,388v93.7l-63.9-63.9C908.5,400.3,931.2,389,956.5,388z
		 M868.9,479c0-21,7.1-40.3,19.1-55.8l62.8,62.8h-81.9L868.9,479L868.9,479z"/>
	<path class="st1" d="M982.3,366.1l-1.8,9.2l-1.1,5.5l5.4,1.2c22.5,4.9,42.9,17.5,57.6,35.4c14.9,18.2,23,41.2,23,64.6v314.4h-0.3
		H854.9h-0.3V482c0-23.5,8.2-46.4,23-64.6c14.6-18,35.1-30.5,57.6-35.4l5.4-1.2l-1.1-5.5l-1.8-9.2L982.3,366.1 M985.6,360.4h-51.2
		l-3,3l2.6,13c-48.6,10.6-85,53.9-85,105.6v320.1h6h210.2h6V482c0-51.7-36.5-95-85-105.6l2.6-13L985.6,360.4L985.6,360.4z"/>
	<g id="XMLID_341_">
		<g>
			<path class="st2" d="M1001.6,773.2c-0.3-22.8-6.3-48.4-17-71.5H937c0,0-0.9,1.2-1.7,2.6c-10.5,20.2-14.5,47.3-14.8,70.1
				c-0.1,4.5,0,10.6,0.2,17.6H958c1.4-13.2,2.5-24.8,2.8-29.3c0.1-1.2,0.1-2.4,0.2-3.5c0,0.8,0.1,1.6,0.1,2.3
				c0.3,4.6,1.5,16.7,3,30.4h37.2C1001.6,784.5,1001.6,778,1001.6,773.2z"/>
			<path class="st3" d="M962.4,720.1h-0.6c0-0.8,0-1.6,0-2.3v-0.6h0.6v0.6C962.4,718.6,962.4,719.4,962.4,720.1z M962.3,723h-0.6
				v2.9h0.6V723z M966.6,708.2L966.6,708.2c0,0-0.2-5-0.2-6.7h-0.6c0,1.7,0.2,5.8,0.2,6.7v-0.1c0.3,5,0.1,12.9-0.3,18.2
				c-0.1,1.3-0.2,2.5-0.8,3.6c-0.5,0.9-1.5,1.7-2.6,1.6c0-0.8,0-1.7,0-2.6h-0.6c0,1.1,0,2,0,2.9l0,0c-0.2,4.6-0.4,9.3-0.7,13.8
				s-0.5,9.2-0.7,13.8h0.6c0.2-4.6,0.4-9.3,0.7-13.8c0.3-4.4,0.5-9,0.7-13.5c1.3,0.1,2.5-0.9,3.1-1.9c0.6-1.1,0.8-2.5,0.9-3.8
				C966.6,721,966.8,712.9,966.6,708.2z"/>
		</g>
		<g>
			<path id="XMLID_2491_" class="st3" d="M973.5,627c-0.3-0.3-0.5-0.4-0.7-0.6c1.5-0.9,2.3-4.1,2.5-5.3c0.3-2.1-0.2-4.1-1.4-5.6
				c-1.5-1.8-3.6-3.3-6.1-4.5c-2-0.9-2.2,0-2.7,0.3c-0.9,0.5-1.3,1.6-1,2.6c0.2,0.5,0.5,0.9,1,1.2c0.5,0.7,1.6,7.8,0,10.3
				c-0.1,0.1-0.1,0.2-0.2,0.4c-0.1,0.5-0.4,0.9-0.7,1.2c-0.4,0.5-0.7,1-1,1.7c-1.5,4.2-0.1,12.7,3.7,15.1c4.3,2.8,9-1.5,9.6-7.8
				C976.7,633.2,975.3,628.9,973.5,627z"/>
			<path id="XMLID_2475_" class="st4" d="M980.4,645.2c-3.5,0.1-9-2.4-10.8-6.7c-0.3-0.8-0.6-1.6-0.8-2.5c-0.8-3.1-1.2-6.4-1.5-9.7
				c1.3-1.3,2.2-3.1,2.4-5.2c0.6-6.3-4.8-12-11.2-10.8c-0.3,0.1-0.7,0.2-1,0.3c-1.7,0.2-3.4,0.9-4.7,2.2c-1.4,1.4-2.1,3.6-2.1,5.6
				c-0.6,2.5,0.1,5.2,1.7,7.3c0.4,3.7,0.3,7.5-1,11.1c-1.7,4.6-5.5,8.4-9.8,10.6c-1.2,0.6-0.7,1.8,0,2.6c0,0.8,0,1.5,0.1,2.3
				c0.1,0.7,0.2,1.3,0.4,1.9c0,0.1,0.1,0.3,0.1,0.4v0.1c0.6,1.8,1.7,3.4,3.2,4.7c3.3,3,8.1,4.5,12.6,4.2c0.2,0,0.3,0,0.5,0
				c0.1,0,0.1,0,0.2,0c8.7,0.1,17.7-4.5,20.2-13.3c0,0,0,0,0-0.1C979.3,649.5,981.5,645.1,980.4,645.2z"/>
			<path class="st3" d="M966.9,623.3c-0.6,2.1-3.4,2.1-4.7,0.7c-0.3-0.3,0.2-0.8,0.5-0.5c0.9,1.1,3.1,1.3,3.5-0.4
				C966.4,622.7,967,622.9,966.9,623.3z M965.3,627.4l-0.1-0.3c-0.4,0.2-1.4,0.2-1.8,0.1l-0.1,0.3c0.2,0.1,0.5,0.1,0.9,0.1
				C964.6,627.7,965,627.6,965.3,627.4z"/>
			<path id="XMLID_2470_" class="st3" d="M967.8,602.6c-2.8-1-5.7,0.1-8.2,1.3c-2.3,1.1-4.7,1.9-7.1,2.7c-1.5,0-3,0.5-4.3,1.7
				c-2.8,2.4-3.6,6.1-2.6,9.3c-2.7-0.1-5.4,1.1-7,3.6s-1.5,5.4-0.4,8c-4.7-1.7-11,0.5-14.2,4.2c-2.1,2.4-3.1,5.9-1.9,8.9l0,0
				c-3.7,0.4-7.3,1.9-10.4,4.2c-4.2,3.2-8.2,8.1-9.9,13.1c-1.7,4.9,0.4,10.3,5.8,11.1c5.3,0.9,10.5-1.2,15.2-3.7
				c0.7,0.2,1.5,0,2-0.8c0.2-0.3,0.3-0.5,0.5-0.8c0.1-0.1,0.1-0.2,0.1-0.3c0.5-0.3,0.8-0.7,0.9-1.4c0.3-2.3,3.9-2.7,4.3-5
				c0.5-3.2-1.2-2.8,1.9-3.6c2.4-0.6,4.9-6.6,7.2-6.9c0.2,0,1.1-0.7,1.5-0.8c0.6-0.2,0.3-0.2,0.7-0.3c6.5-2.1,10.3-9.6,10.8-16.4
				c1.2-2.7,1.5-5.8,0.8-8.7c-0.6,0-1.3-0.2-1.6-0.9c-0.7-1.5,1-2.9,2.4-2.4c0.1-0.6,0.1-1.1,0.1-1.7c0.6,0.2,1.2,0.3,1.9,0.3
				c5.2,1.8,12.2-1,13.6-6.5C971.6,607.8,971.5,604,967.8,602.6z"/>
		</g>
		<g>
			<path class="st5" d="M951.1,716.3c-0.9-1.8-3.6-4.7-5.1-6.1c-0.7-0.6-1.4-1.2-2.3-1.6c-1.1-1.9-3.8-4.5-6-5.3
				c-2.1-3-5.6-7.3-7.1-9.6c-2.5-3.8-4.4-6.8-4.9-7.7c-0.1-0.2-1.1-1.5-2.1-2.7c1.2-0.6,2.4-1.3,3.6-1.9c1.7-1,3-2.3,4.5-3.6
				c0.5-0.4,4.7-5,4.6-5c1.9,0.3,3.9-0.4,5.7-1.1c2.7-1.1,5.6-2.4,7.2-4.8c1.2-1.7,1.6-3.8,1.8-5.9c0.2-2.7-2.9-3.2-3.9-5.8
				c-1-2.4-1.3-6.3-3.8-7.4c-2.6-1.2-4.3,0.1-6.9,0.9c-2.7,0.9-5.2,2.3-7.5,4c-4.5,3.4-20.1,18.2-24.1,24.6
				c-0.2,0.3-0.3,0.7-0.3,1.1c-0.9,2-1.2,4.2-0.6,5.9c2.6,9.5,21.7,25.8,28.2,28.7c-0.2,1.5,0,3,0.2,4.6c1.3,0,9.9,0.1,12.6,0
				c0.1-1.3,0.1-2.7,0-4.1c1.5,1.3,3,2.9,3.5,3.9C949.5,719.3,952.2,718.3,951.1,716.3z"/>
			<path id="XMLID_41_" class="st3" d="M906.5,685.1l0.5-0.5c-1.1-1.2-1.4-3-0.8-4.4l-0.6-0.2C904.9,681.7,905.3,683.7,906.5,685.1z
				"/>
			<path class="st3" d="M933.9,727c-1.6-2-1.6-5.5-1.6-7c0-0.2,0-0.4,0-0.5h0.6c0,0.1,0,0.3,0,0.6c0,1.4,0,4.8,1.5,6.7
				c2.3,2.9,5.6,2.4,7.2,1.6c1.3-0.6,2.3-1.7,2.9-3.2c0.8-1.8,0.7-3.5,0.4-5.9l0.6-0.1c0.3,2.4,0.4,4.3-0.5,6.2
				c-0.7,1.6-1.8,2.8-3.2,3.5c-0.7,0.4-1.8,0.7-3,0.7C937.1,729.4,935.3,728.8,933.9,727z M941.5,719h2.4v-0.6h-2.4h-0.4v0.6H941.5z
				 M938.2,718.9v-0.6h-0.3c-0.8,0-1.7-0.1-2.4-0.1v0.6c0.7,0,1.6,0,2.4,0.1H938.2z"/>
		</g>
		<g>
			<path class="st5" d="M1015.6,675.3c-5.2-7.7-16.9-20.9-20.7-24.1c-2.2-1.9-4.6-3.5-7.2-4.6c-2.5-1-5.5-1.8-8.2-0.8
				c-2.5,0.9-1.4,6.4-2.6,8.8c-1.2,2.5-4.9,1.1-4.9,3.9c0,2.1,0.3,4.3,1.4,6.1c1.5,2.6,4.3,4.1,6.9,5.3c1.8,0.8,3.7,1.7,5.7,1.5
				c-0.1,0,3.8,5,4.2,5.4c1.4,1.4,2.7,2.8,4.3,3.9c1.3,0.9,2.7,1.8,4.1,2.6c-1,1.3-2,2.5-2,2.7c-0.5,0.9-2.4,3.8-4.9,7.7
				c-1.5,2.3-5.1,6.6-7.1,9.6c-2.2,0.9-4.8,3.5-6,5.3c-0.9,0.4-1.6,0.9-2.3,1.6c-1.5,1.4-4.2,4.3-5.1,6.1c-1,2,1.6,3,2.7,1
				c0.5-1,2.1-2.6,3.5-3.9c-0.1,1.4-0.1,2.8,0,4.1c2.7,0.1,11.4,0,12.6,0c0.2-1.6,0.3-3.1,0.2-4.6c6.6-2.9,25.7-19.2,28.2-28.7
				C1019.2,681.5,1018.1,677.5,1015.6,675.3z"/>
			<path id="XMLID_2274_" class="st3" d="M1015.6,685.1l-0.5-0.5c1.1-1.2,1.4-3,0.8-4.4l0.6-0.2
				C1017.2,681.7,1016.9,683.7,1015.6,685.1z"/>
			<path class="st3" d="M983.6,729.4c-1.2,0-2.3-0.3-3-0.7c-1.4-0.7-2.5-1.9-3.2-3.5c-0.8-1.9-0.8-3.8-0.5-6.2l0.6,0.1
				c-0.3,2.4-0.4,4.1,0.4,5.9c0.6,1.5,1.6,2.6,2.9,3.2c1.6,0.8,4.9,1.3,7.2-1.6c1.5-1.9,1.5-5.3,1.5-6.7c0-0.3,0-0.5,0-0.6h0.6
				c0,0.1,0,0.3,0,0.5c0,1.5,0,5-1.6,7C987,728.8,985.2,729.4,983.6,729.4z M981.2,719v-0.6h-0.4h-2.4v0.6h2.4H981.2z M984.4,718.9
				c0.8,0,1.7-0.1,2.4-0.1v-0.6c-0.7,0-1.6,0-2.4,0.1h-0.3v0.6H984.4z"/>
		</g>
		<g>
			<path class="st3" d="M986.5,675.2c0-0.6-0.1-1.1-0.3-1.7c-0.2-0.6-0.5-4.1-1.7-5.2c-0.3-4.4-0.7-8.5-1.5-11.6
				c-0.7-3-0.6-11-0.9-11.5l-4.6-0.5c-0.2,0-0.5,6.7-2.3,8.7c-1.8,1.9-5.4,6-15.9,5.3c-6.9-0.5-13.5-8.7-16-12.1
				c-1.7,0.4-4.7,0.7-5.3,0.9c-0.7,1.3,0.2,17.4-0.4,24.3c-0.8,9.9,0.1,19.3-0.8,29.8h47.6c0-4.3,0.4-13.6,0.3-23
				C985.7,677.7,986.5,676.5,986.5,675.2z"/>
			<path class="st2" d="M950.8,683.7v-0.6c3.4,0,7.6-3.1,7.8-6.9c0.1-2.1-1.1-8.2-7.9-9.7l0.1-0.6c7.1,1.5,8.4,8.1,8.3,10.3
				C959,680.4,954.5,683.7,950.8,683.7z M986.9,675c0-1.3-0.4-8.1-7.7-10.3l-0.2,0.6c7,2,7.3,8.4,7.3,9.7c0,3.2-3.9,6.8-7.2,6.9v0.6
				C982.8,682.5,986.9,678.6,986.9,675z"/>
		</g>
	</g>
	<g>
		<path class="st1" d="M960,378c-55.8,0-101,45.2-101,101v313h202V479C1061,423.2,1015.8,378,960,378z M1051.1,782.1H868.9V501.9
			h182.2V782.1z M1051.1,479v7.1h-81.9l62.8-62.8C1043.9,438.7,1051.1,458,1051.1,479z M1027.4,417.8l-63.9,63.9V388
			C988.8,389,1011.5,400.3,1027.4,417.8z M956.5,388v93.7l-63.9-63.9C908.5,400.3,931.2,389,956.5,388z M868.9,479
			c0-21,7.1-40.3,19.1-55.8l62.8,62.8h-81.9L868.9,479L868.9,479z"/>
		<path class="st6" d="M983,373.4l2.6-13c-8.3-1.6-16.9-2.5-25.6-2.5s-17.3,0.9-25.6,2.5l2.6,13c-48.6,10.6-85,53.9-85,105.6v320.1
			h216.2V479C1068.1,427.3,1031.6,384,983,373.4z M1030.3,416.9l-56,56c-3.5-3.1-8-5-12.9-5.3v-82.4
			C988.8,385.5,1013.4,397.7,1030.3,416.9z M958.6,385.1v82.4c-4.9,0.3-9.4,2.3-12.9,5.3l-56-56
			C906.6,397.7,931.2,385.5,958.6,385.1z M866.1,479c0-22.8,8.2-43.7,21.7-60l55.9,55.9c-2.5,2.8-4.2,6.2-5,10h-72.6L866.1,479
			L866.1,479z M1053.9,784.9H866.1V499.1h187.8V784.9z M981.3,484.9c-0.8-3.8-2.5-7.2-5-10l55.9-55.9c13.6,16.3,21.7,37.2,21.7,60
			v5.9H981.3z"/>
		<g>
			<path class="st7" d="M859,677v-48.2L1061,492v48.2L859,677z M1061,700v-70.3L859,766.6V792h66.3L1061,700z"/>
			<polygon class="st8" points="1061,507.4 1061,503.9 928.3,593.8 928.3,597.3 			"/>
		</g>
	</g>
</g>
</svg>
