<?xml version="1.0" encoding="utf-8"?>
<!-- Generator: Adobe Illustrator 22.1.0, SVG Export Plug-In . SVG Version: 6.00 Build 0)  -->
<svg version="1.1" id="Calque_1" xmlns="http://www.w3.org/2000/svg" xmlns:xlink="http://www.w3.org/1999/xlink" x="0px" y="0px"
	 viewBox="0 0 11.9 22" style="enable-background:new 0 0 11.9 22;" xml:space="preserve">
<style type="text/css">
	.st0{fill:#DE1744;}
</style>
<path class="st0" d="M10.7,2.6C9.7,0.9,8,0,6,0c0,0,0,0,0,0C3.9,0,2.2,0.9,1.2,2.6c-1.8,2.9-1.5,8.2,0.8,13c0.7,1.5,2.2,2.5,3.9,2.5
	c0.3,1.3,0.8,2.6,1.3,3.6c0.1,0.2,0.3,0.3,0.4,0.3c0.1,0,0.2,0,0.2-0.1c0.2-0.1,0.3-0.4,0.2-0.7c-0.5-0.9-0.9-2-1.2-3.2
	c1.3-0.3,2.5-1.2,3.1-2.4C12.2,10.8,12.5,5.5,10.7,2.6z M9.1,15.1c-0.5,1-1.4,1.7-2.4,1.9c-0.7-3.4-1-7.4-0.4-10.7
	C6.2,6,6,5.7,5.8,5.7c-0.3,0-0.5,0.1-0.6,0.4C4.7,9.5,4.9,13.6,5.6,17c-1.2-0.1-2.2-0.8-2.8-2C0.7,10.7,0.4,5.7,2,3.1
	C2.9,1.7,4.2,1,6,1C7.7,1,9,1.7,9.9,3.1C11.5,5.7,11.2,10.7,9.1,15.1z"/>
</svg>
