<?xml version="1.0" encoding="utf-8"?>
<!-- Generator: Adobe Illustrator 22.1.0, SVG Export Plug-In . SVG Version: 6.00 Build 0)  -->
<svg version="1.1" id="Calque_1" xmlns="http://www.w3.org/2000/svg" xmlns:xlink="http://www.w3.org/1999/xlink" x="0px" y="0px"
	 viewBox="0 0 37.8 48.9" style="enable-background:new 0 0 37.8 48.9;" xml:space="preserve">
<style type="text/css">
	.st0{fill:#FF9068;}
	.st1{fill:#DE1744;}
</style>
<g>
	<g>
		<path class="st0" d="M35,26.2c-4.4-5.2-3.4-6.8,0.2-14.2C38.8,4.7,29.4,0,18.9,0S-1,4.7,2.6,12.1S7.2,21,2.8,26.2
			C-7.9,39,14.8,36.6,18.9,48.3C23,36.6,45.7,39,35,26.2z"/>
	</g>
	<path class="st1" d="M26.4,29.1c-0.2-0.2-0.6-0.2-0.8,0l-6.1,6.1v-7.4l3.1-3.1c0.2-0.2,0.2-0.6,0-0.8c-0.2-0.2-0.6-0.2-0.8,0
		l-2.3,2.3v-7.4l5.7-5.7c0.2-0.2,0.2-0.6,0-0.8c-0.2-0.2-0.6-0.2-0.8,0l-4.9,4.9V8.1c0-0.3-0.3-0.6-0.6-0.6s-0.6,0.3-0.6,0.6v9.1
		l-5.7-5.7c-0.2-0.2-0.6-0.2-0.8,0c-0.2,0.2-0.2,0.6,0,0.8l6.5,6.5v7.4l-2.8-2.8c-0.2-0.2-0.6-0.2-0.8,0c-0.2,0.2-0.2,0.6,0,0.8
		l3.6,3.6v7.4L14,30.9c-0.2-0.2-0.6-0.2-0.8,0c-0.2,0.2-0.2,0.6,0,0.8l5.1,5.1v11.5c0,0.3,0.3,0.6,0.6,0.6s0.6-0.3,0.6-0.6V36.8
		l6.9-6.9C26.6,29.7,26.6,29.3,26.4,29.1z"/>
</g>
</svg>
