<?xml version="1.0" encoding="utf-8"?>
<!-- Generator: Adobe Illustrator 22.1.0, SVG Export Plug-In . SVG Version: 6.00 Build 0)  -->
<svg version="1.1" id="Calque_1" xmlns="http://www.w3.org/2000/svg" xmlns:xlink="http://www.w3.org/1999/xlink" x="0px" y="0px"
	 viewBox="0 0 33.4 42.5" style="enable-background:new 0 0 33.4 42.5;" xml:space="preserve">
<style type="text/css">
	.st0{fill:#FF4855;}
	.st1{fill:#FFC177;}
</style>
<g>
	<g>
		<path class="st0" d="M16.9,38.2c-12,0-14.4-7.8-6-10C1.4,26.6-5.8,12.4,6.6,10.4C4.9,6.9,7.8-1.5,19.6,0.2
			c17,2.5,17.3,11.9,6.4,14c8.9,2.3,9.5,14.2-2.1,17.9C30,32.8,28.5,38.2,16.9,38.2z"/>
	</g>
	<path class="st1" d="M25.9,23.9c-0.2-0.2-0.6-0.2-0.8,0l-7.9,7.9v-9.9l5.9-5.9c0.2-0.2,0.2-0.6,0-0.8c-0.2-0.2-0.6-0.2-0.8,0
		l-5.1,5.1V8.1c0-0.3-0.3-0.6-0.6-0.6s-0.6,0.3-0.6,0.6v12.1l-4.4-4.4c-0.2-0.2-0.6-0.2-0.8,0c-0.2,0.2-0.2,0.6,0,0.8l5.2,5.2v4.6
		l-5.6-5.6c-0.2-0.2-0.6-0.2-0.8,0c-0.2,0.2-0.2,0.6,0,0.8l6.4,6.4v13.9c0,0.3,0.3,0.6,0.6,0.6s0.6-0.3,0.6-0.6v-8.6l8.7-8.7
		C26.2,24.5,26.2,24.1,25.9,23.9z"/>
</g>
</svg>
