<?xml version="1.0" encoding="utf-8"?>
<!-- Generator: Adobe Illustrator 22.1.0, SVG Export Plug-In . SVG Version: 6.00 Build 0)  -->
<svg version="1.1" id="Calque_1" xmlns="http://www.w3.org/2000/svg" xmlns:xlink="http://www.w3.org/1999/xlink" x="0px" y="0px"
	 viewBox="0 0 47.7 56.7" style="enable-background:new 0 0 47.7 56.7;" xml:space="preserve">
<style type="text/css">
	.st0{fill:#FFC177;}
	.st1{fill:#FF5077;}
</style>
<g>
	<g>
		<path class="st0" d="M44.3,26.1c-5.8-3.7-4.5-4.6-3.6-8.9C42.7,8,31.3,6.1,23.9,0C16.4,6.1,5,8,7,17.3c0.9,4.3,2.2,5.1-3.6,8.9
			c-5.8,3.7-3.7,13.3,3.3,14.7c7,1.3,0.9,9.8,8.7,10.2c3.5,0.2,5.5,0.7,6.8,1.3c1.1,0.5,2.4,0.5,3.5,0c1.2-0.5,3.3-1.1,6.8-1.3
			c7.8-0.5,1.7-8.9,8.7-10.2C48.1,39.5,50.2,29.9,44.3,26.1z"/>
	</g>
	<path class="st1" d="M30.9,34.9c-0.2-0.2-0.6-0.2-0.8,0l-5.7,5.7v-6.7l6.5-6.5c0.2-0.2,0.2-0.6,0-0.8c-0.2-0.2-0.6-0.2-0.8,0
		l-5.7,5.7v-4.7l4.7-4.7c0.2-0.2,0.2-0.6,0-0.8c-0.2-0.2-0.6-0.2-0.8,0L24.4,26V11.7c0-0.3-0.3-0.6-0.6-0.6s-0.6,0.3-0.6,0.6V26
		l-4.8-4.8c-0.2-0.2-0.6-0.2-0.8,0c-0.2,0.2-0.2,0.6,0,0.8l5.6,5.6v12.9l-6.5-6.5c-0.2-0.2-0.6-0.2-0.8,0c-0.2,0.2-0.2,0.6,0,0.8
		l7.3,7.3v14c0,0.3,0.3,0.6,0.6,0.6s0.6-0.3,0.6-0.6v-14l6.5-6.5C31.1,35.5,31.1,35.1,30.9,34.9z"/>
</g>
</svg>
