<?xml version="1.0" encoding="utf-8"?>
<!-- Generator: Adobe Illustrator 22.1.0, SVG Export Plug-In . SVG Version: 6.00 Build 0)  -->
<svg version="1.1" id="Calque_1" xmlns="http://www.w3.org/2000/svg" xmlns:xlink="http://www.w3.org/1999/xlink" x="0px" y="0px"
	 viewBox="0 0 9.8 25.6" style="enable-background:new 0 0 9.8 25.6;" xml:space="preserve">
<style type="text/css">
	.st0{fill:#DE1744;}
</style>
<path class="st0" d="M9.8,8.4c0-6.6-4.5-8.3-4.7-8.3C5,0,4.8,0,4.7,0C4.5,0.1,0,1.8,0,8.4c0,5.5,3.6,10.8,4.4,11.9
	c-0.3,2-0.8,3.7-1.7,4.6c-0.2,0.2-0.2,0.5,0,0.7c0.1,0.1,0.2,0.1,0.3,0.1c0.1,0,0.3-0.1,0.4-0.2c1-1.1,1.6-3,1.9-5.1
	C5.7,19.8,9.8,14.2,9.8,8.4z M1,8.4c0-5.2,3.1-7,3.9-7.3c0.8,0.4,3.9,2.1,3.9,7.3c0,3.8-1.9,7.6-3.2,9.7c0.4-4.5,0-9.1,0-9.5
	c0-0.3-0.3-0.5-0.5-0.5c-0.3,0-0.5,0.3-0.5,0.5c0,0.1,0.4,5.4-0.1,10C3.3,16.8,1,12.6,1,8.4z"/>
</svg>
