<?xml version="1.0" encoding="utf-8"?>
<!-- Generator: Adobe Illustrator 22.1.0, SVG Export Plug-In . SVG Version: 6.00 Build 0)  -->
<svg version="1.1" id="Logo" xmlns="http://www.w3.org/2000/svg" xmlns:xlink="http://www.w3.org/1999/xlink" x="0px" y="0px"
	 viewBox="0 0 1920 1080" style="enable-background:new 0 0 1920 1080;" xml:space="preserve">
<style type="text/css">
	.st0{fill:#F2D1C8;}
	.st1{fill:#FFF2F2;}
</style>
<g>
	<path class="st0" d="M1014.3,351.6l-24.3-14l24.3-14c4.6-2.7,7.5-7.7,7.5-13s-2.9-10.3-7.5-13l-46.8-27c-2.3-1.3-4.9-2-7.5-2
		s-5.2,0.7-7.5,2l-46.8,27c-4.6,2.7-7.5,7.7-7.5,13v54.1c0,5.3,2.9,10.3,7.5,13l46.8,27c2.3,1.3,4.9,2,7.5,2s5.2-0.7,7.5-2l46.8-27
		c4.6-2.7,7.5-7.7,7.5-13C1021.8,359.2,1019,354.2,1014.3,351.6z M1001.7,309.1c0.4-1.4,1.2-2.5,2.5-3.2c0.8-0.5,1.7-0.7,2.6-0.7
		c1.9,0,3.6,1,4.6,2.6c0.7,1.2,0.9,2.6,0.5,4s-1.2,2.5-2.5,3.2c-0.8,0.5-1.7,0.7-2.6,0.7c-1.9,0-3.6-1-4.6-2.6
		C1001.6,311.9,1001.4,310.5,1001.7,309.1z M1002.3,361.9c0.9-1.6,2.7-2.6,4.6-2.6c0.9,0,1.8,0.2,2.6,0.7c1.2,0.7,2.1,1.8,2.5,3.2
		c0.4,1.4,0.2,2.8-0.5,4c-0.9,1.6-2.7,2.6-4.6,2.6c-0.9,0-1.8-0.2-2.6-0.7c-1.2-0.7-2.1-1.8-2.5-3.2
		C1001.4,364.6,1001.6,363.1,1002.3,361.9z M945,337.5c0,5.3,2.9,10.3,7.5,13l24.3,14l-16.8,9.7l-31.8-18.4v-36.7l31.8-18.4
		l16.8,9.7l-24.3,14C947.9,327.2,945,332.2,945,337.5z M960,342.8c-2.9,0-5.3-2.4-5.3-5.3s2.4-5.3,5.3-5.3s5.3,2.4,5.3,5.3
		S962.9,342.8,960,342.8z M954.7,283.5c0-2.9,2.4-5.3,5.3-5.3s5.3,2.4,5.3,5.3c0,2.9-2.4,5.3-5.3,5.3S954.7,286.4,954.7,283.5z
		 M960,386.3c2.9,0,5.3,2.4,5.3,5.3s-2.4,5.3-5.3,5.3s-5.3-2.4-5.3-5.3C954.7,388.7,957.1,386.3,960,386.3z M913.2,315.8
		c-0.9,0-1.8-0.2-2.6-0.7c-1.2-0.7-2.1-1.8-2.5-3.2c-0.4-1.4-0.2-2.8,0.5-4c0.9-1.6,2.7-2.6,4.6-2.6c0.9,0,1.8,0.2,2.6,0.7
		c1.2,0.7,2.1,1.8,2.5,3.2c0.4,1.4,0.2,2.8-0.5,4C916.8,314.8,915,315.8,913.2,315.8z M908.1,363.2c0.4-1.4,1.2-2.5,2.5-3.2
		c0.8-0.5,1.7-0.7,2.6-0.7c1.9,0,3.6,1,4.6,2.6c0.7,1.2,0.9,2.6,0.5,4s-1.2,2.5-2.5,3.2c-0.8,0.5-1.7,0.7-2.6,0.7
		c-1.9,0-3.6-1-4.6-2.6C907.9,366,907.7,364.6,908.1,363.2z"/>
	<path class="st1" d="M1012.9,351l-28.6-16.5l28.6-16.5c3.8-2.2,6.1-6.2,6.1-10.5s-2.3-8.4-6.1-10.5l-46.8-27
		c-3.8-2.2-8.4-2.2-12.2,0l-46.8,27c-3.8,2.2-6.1,6.2-6.1,10.5v54.1c0,4.3,2.3,8.4,6.1,10.5l46.8,27c1.9,1.1,4,1.6,6.1,1.6
		s4.2-0.5,6.1-1.6l46.8-27c3.8-2.2,6.1-6.2,6.1-10.5C1019,357.2,1016.7,353.2,1012.9,351z M999,305.4c0.6-2.1,1.9-3.8,3.8-4.9
		c1.2-0.7,2.6-1.1,4-1.1c2.9,0,5.6,1.6,7,4.1c1.1,1.9,1.4,4.1,0.8,6.2c-0.6,2.1-1.9,3.8-3.8,4.9c-1.2,0.7-2.6,1.1-4,1.1
		c-2.9,0-5.6-1.6-7-4.1C998.7,309.7,998.4,307.5,999,305.4z M960,272.3c4.5,0,8.1,3.6,8.1,8.1s-3.6,8.1-8.1,8.1s-8.1-3.6-8.1-8.1
		C951.9,276,955.5,272.3,960,272.3z M921,363.7c-0.6,2.1-1.9,3.8-3.8,4.9c-1.2,0.7-2.6,1.1-4,1.1c-2.9,0-5.6-1.6-7-4.1
		c-1.1-1.9-1.4-4.1-0.8-6.2c0.6-2.1,1.9-3.8,3.8-4.9c1.2-0.7,2.6-1.1,4-1.1c2.9,0,5.6,1.6,7,4.1C921.3,359.4,921.6,361.6,921,363.7z
		 M920.2,311.5c-1.4,2.5-4.1,4.1-7,4.1c-1.4,0-2.8-0.4-4-1.1c-1.9-1.1-3.2-2.8-3.8-4.9s-0.3-4.3,0.8-6.2c1.4-2.5,4.1-4.1,7-4.1
		c1.4,0,2.8,0.4,4,1.1c1.9,1.1,3.2,2.8,3.8,4.9C921.6,307.5,921.3,309.7,920.2,311.5z M960,396.7c-4.5,0-8.1-3.6-8.1-8.1
		s3.6-8.1,8.1-8.1s8.1,3.6,8.1,8.1S964.5,396.7,960,396.7z M953.9,324c-3.8,2.2-6.1,6.2-6.1,10.5s2.3,8.4,6.1,10.5l28.6,16.5
		l-22.5,13l-34.7-20v-40l34.7-20l22.5,13L953.9,324z M968.1,334.5c0,4.5-3.6,8.1-8.1,8.1s-8.1-3.6-8.1-8.1s3.6-8.1,8.1-8.1
		S968.1,330.1,968.1,334.5z M1013.9,365.6c-1.4,2.5-4.1,4.1-7,4.1c-1.4,0-2.8-0.4-4-1.1c-1.9-1.1-3.2-2.8-3.8-4.9s-0.3-4.3,0.8-6.2
		c1.4-2.5,4.1-4.1,7-4.1c1.4,0,2.8,0.4,4,1.1c1.9,1.1,3.2,2.8,3.8,4.9C1015.2,361.6,1014.9,363.7,1013.9,365.6z"/>
</g>
</svg>
