<?xml version="1.0" encoding="utf-8"?>
<!-- Generator: Adobe Illustrator 22.1.0, SVG Export Plug-In . SVG Version: 6.00 Build 0)  -->
<svg version="1.1" id="Calque_1" xmlns="http://www.w3.org/2000/svg" xmlns:xlink="http://www.w3.org/1999/xlink" x="0px" y="0px"
	 viewBox="0 0 110.5 37.3" style="enable-background:new 0 0 110.5 37.3;" xml:space="preserve">
<style type="text/css">
	.st0{fill:#FFFFFF;}
</style>
<path class="st0" d="M82.7,17.6c-0.8,0-1.6,0-2.4,0c0.3-1.2,0.6-2.3,0.7-3.5c0.2-1.6,0.3-3.1,0.3-4.7c0-1.6-0.1-3.1-0.3-4.7
	c-0.2-1.6-0.5-3.1-1.1-4.7c-0.6,1.6-0.9,3.1-1.1,4.7c-0.2,1.6-0.3,3.1-0.3,4.7c0,1.6,0.1,3.1,0.3,4.7c0.2,1.2,0.4,2.3,0.7,3.5
	c-3.5-0.1-7-0.1-10.5-0.2l-13.8-0.1c-9.2,0-18.3,0.1-27.5,0.3c-3.6,0.1-7.3,0.2-10.9,0.3c0.4-1.3,0.7-2.6,0.8-3.9
	c0.2-1.6,0.3-3.1,0.3-4.7c0-1.6-0.1-3.1-0.3-4.7c-0.2-1.6-0.5-3.1-1.1-4.7c-0.6,1.6-0.9,3.1-1.1,4.7c-0.2,1.6-0.3,3.1-0.3,4.7
	c0,1.6,0.1,3.1,0.3,4.7c0.2,1.3,0.4,2.6,0.9,3.9c-5.4,0.2-10.7,0.4-16.1,0.8c9.2,0.6,18.3,0.9,27.5,1.1C34.4,19.9,41,20,47.7,20
	c-0.3,1.1-0.5,2.2-0.7,3.3c-0.2,1.6-0.3,3.1-0.3,4.7c0,1.6,0.1,3.1,0.3,4.7c0.2,1.6,0.5,3.1,1.1,4.7c0.6-1.6,0.9-3.1,1.1-4.7
	c0.2-1.6,0.3-3.1,0.3-4.7c0-1.6-0.1-3.1-0.3-4.7c-0.2-1.1-0.4-2.2-0.7-3.3c2.2,0,4.4,0,6.5,0L68.9,20c4.6-0.1,9.2-0.1,13.8-0.2
	c9.2-0.2,18.3-0.5,27.5-1.1C101,18.1,91.8,17.8,82.7,17.6z"/>
</svg>
