<?xml version="1.0" encoding="utf-8"?>
<!-- Generator: Adobe Illustrator 22.1.0, SVG Export Plug-In . SVG Version: 6.00 Build 0)  -->
<svg version="1.1" id="Calque_1" xmlns="http://www.w3.org/2000/svg" xmlns:xlink="http://www.w3.org/1999/xlink" x="0px" y="0px"
	 viewBox="0 0 110 37.3" style="enable-background:new 0 0 110 37.3;" xml:space="preserve">
<style type="text/css">
	.st0{fill:#FFFFFF;}
</style>
<path class="st0" d="M82.5,17.6c-0.8,0-1.6,0-2.4,0c0.3-1.2,0.6-2.3,0.7-3.5c0.2-1.6,0.3-3.1,0.3-4.7c0-1.6-0.1-3.1-0.3-4.7
	c-0.2-1.6-0.5-3.1-1.1-4.7c-0.6,1.6-0.9,3.1-1.1,4.7c-0.2,1.6-0.3,3.1-0.3,4.7c0,1.6,0.1,3.1,0.3,4.7c0.2,1.2,0.4,2.3,0.7,3.5
	c-3.5-0.1-7-0.1-10.5-0.2L55,17.3c-9.2,0-18.3,0.1-27.5,0.3C18.3,17.8,9.2,18.1,0,18.7c9.2,0.6,18.3,0.9,27.5,1.1
	c6.7,0.2,13.4,0.2,20.1,0.3c-0.3,1.1-0.5,2.2-0.7,3.3c-0.2,1.6-0.3,3.1-0.3,4.7c0,1.6,0.1,3.1,0.3,4.7c0.2,1.6,0.5,3.1,1.1,4.7
	c0.6-1.6,0.9-3.1,1.1-4.7c0.2-1.6,0.3-3.1,0.3-4.7c0-1.6-0.1-3.1-0.3-4.7c-0.2-1.1-0.4-2.2-0.7-3.3c2.2,0,4.4,0,6.5,0L68.8,20
	c4.6-0.1,9.2-0.1,13.8-0.2c9.2-0.2,18.3-0.5,27.5-1.1C100.8,18.1,91.7,17.8,82.5,17.6z"/>
</svg>
