<?xml version="1.0" encoding="utf-8"?>
<!-- Generator: Adobe Illustrator 22.1.0, SVG Export Plug-In . SVG Version: 6.00 Build 0)  -->
<svg version="1.1" id="Calque_1" xmlns="http://www.w3.org/2000/svg" xmlns:xlink="http://www.w3.org/1999/xlink" x="0px" y="0px"
	 viewBox="0 0 112.7 37.3" style="enable-background:new 0 0 112.7 37.3;" xml:space="preserve">
<style type="text/css">
	.st0{fill:#FFFFFF;}
</style>
<path class="st0" d="M112.7,18.7c-4.7-0.3-9.5-0.5-14.2-0.7c0.4-1.3,0.7-2.6,0.9-4c0.2-1.6,0.3-3.1,0.3-4.7c0-1.6-0.1-3.1-0.3-4.7
	c-0.2-1.6-0.5-3.1-1.1-4.7c-0.6,1.6-0.9,3.1-1.1,4.7c-0.2,1.6-0.3,3.1-0.3,4.7c0,1.6,0.1,3.1,0.3,4.7c0.2,1.3,0.4,2.6,0.9,4
	c-4.5-0.2-9-0.3-13.5-0.4c-9.4-0.2-18.8-0.3-28.2-0.3l-14.1,0.1c-2.3,0-4.6,0.1-6.9,0.1c0.3-1.1,0.5-2.3,0.7-3.4
	c0.2-1.6,0.3-3.1,0.3-4.7c0-1.6-0.1-3.1-0.3-4.7c-0.2-1.6-0.5-3.1-1.1-4.7c-0.6,1.6-0.9,3.1-1.1,4.7c-0.2,1.6-0.3,3.1-0.3,4.7
	c0,1.6,0.1,3.1,0.3,4.7c0.2,1.1,0.4,2.3,0.7,3.4c-2.1,0-4.2,0.1-6.4,0.1C18.8,17.8,9.4,18.1,0,18.7c9.4,0.6,18.8,0.9,28.2,1.1
	c4.7,0.1,9.4,0.2,14.1,0.2l14.1,0.1c3.3,0,6.5,0,9.8-0.1c-0.3,1.1-0.5,2.2-0.7,3.3c-0.2,1.6-0.3,3.1-0.3,4.7c0,1.6,0.1,3.1,0.3,4.7
	c0.2,1.6,0.5,3.1,1.1,4.7c0.6-1.6,0.9-3.1,1.1-4.7c0.2-1.6,0.3-3.1,0.3-4.7c0-1.6-0.1-3.1-0.3-4.7c-0.2-1.1-0.4-2.2-0.7-3.3
	c5.8,0,11.6-0.1,17.5-0.3C93.9,19.6,103.3,19.3,112.7,18.7z"/>
</svg>
