<?xml version="1.0" encoding="utf-8"?>
<!-- Generator: Adobe Illustrator 22.1.0, SVG Export Plug-In . SVG Version: 6.00 Build 0)  -->
<svg version="1.1" id="Calque_1" xmlns="http://www.w3.org/2000/svg" xmlns:xlink="http://www.w3.org/1999/xlink" x="0px" y="0px"
	 viewBox="0 0 126.8 55.8" style="enable-background:new 0 0 126.8 55.8;" xml:space="preserve">
<style type="text/css">
	.st0{fill:#FFFFFF;}
</style>
<path class="st0" d="M99.3,36.2c-0.8,0-1.6,0-2.4,0c0.3-1.2,0.6-2.3,0.7-3.5c0.2-1.6,0.3-3.1,0.3-4.7c0-1.6-0.1-3.1-0.3-4.7
	c-0.2-1.3-0.4-2.6-0.8-3.9c5.6-0.2,11.2-0.4,16.7-0.8c-9.2-0.6-18.3-0.9-27.5-1.1c-4.6-0.1-9.2-0.2-13.8-0.2l-7,0
	c0.3-1.1,0.5-2.2,0.7-3.3c0.2-1.6,0.3-3.1,0.3-4.7c0-1.6-0.1-3.1-0.3-4.7c-0.2-1.6-0.5-3.1-1.1-4.7c-0.6,1.6-0.9,3.1-1.1,4.7
	c-0.2,1.6-0.3,3.1-0.3,4.7c0,1.6,0.1,3.1,0.3,4.7c0.2,1.1,0.4,2.2,0.7,3.3l-5.9,0c-9.2,0-18.3,0.1-27.5,0.3
	c-9.2,0.2-18.3,0.5-27.5,1.1c9.2,0.6,18.3,0.9,27.5,1.1c0.6,0,1.2,0,1.8,0c-0.4,1.2-0.6,2.4-0.7,3.5c-0.2,1.6-0.3,3.1-0.3,4.7
	c0,1.6,0.1,3.1,0.3,4.7c0.2,1.3,0.4,2.6,0.9,3.9c-5.4,0.2-10.7,0.4-16.1,0.8c9.2,0.6,18.3,0.9,27.5,1.1c6.7,0.2,13.4,0.2,20.1,0.3
	c-0.3,1.1-0.5,2.2-0.7,3.3c-0.2,1.6-0.3,3.1-0.3,4.7c0,1.6,0.1,3.1,0.3,4.7c0.2,1.6,0.5,3.1,1.1,4.7c0.6-1.6,0.9-3.1,1.1-4.7
	c0.2-1.6,0.3-3.1,0.3-4.7c0-1.6-0.1-3.1-0.3-4.7c-0.2-1.1-0.4-2.2-0.7-3.3c2.2,0,4.4,0,6.5,0l13.8-0.1c4.6-0.1,9.2-0.1,13.8-0.2
	c9.2-0.2,18.3-0.5,27.5-1.1C117.6,36.7,108.4,36.4,99.3,36.2z M71.8,35.9c-9.2,0-18.3,0.1-27.5,0.3c-3.6,0.1-7.3,0.2-10.9,0.3
	c0.4-1.3,0.7-2.6,0.8-3.9c0.2-1.6,0.3-3.1,0.3-4.7c0-1.6-0.1-3.1-0.3-4.7c-0.2-1.2-0.4-2.3-0.7-3.5c8.3,0.2,16.6,0.2,24.9,0.3
	L72.2,20c4.6-0.1,9.2-0.1,13.8-0.2c3.4-0.1,6.8-0.2,10.2-0.3c-0.4,1.3-0.7,2.6-0.8,3.9C95.1,24.9,95,26.4,95,28
	c0,1.6,0.1,3.1,0.3,4.7c0.2,1.2,0.4,2.3,0.7,3.5c-3.5-0.1-7-0.1-10.5-0.2L71.8,35.9z M2.5,4.7c0.2,1.6,0.3,3.1,0.3,4.7
	c0,1.6-0.1,3.1-0.3,4.7c-0.2,1.6-0.5,3.1-1.1,4.7c-0.6-1.6-0.9-3.1-1.1-4.7C0.1,12.4,0,10.9,0,9.3c0-1.6,0.1-3.1,0.3-4.7
	C0.5,3.1,0.8,1.6,1.4,0C2,1.6,2.3,3.1,2.5,4.7z"/>
</svg>
