<?xml version="1.0" encoding="utf-8"?>
<!-- Generator: Adobe Illustrator 22.1.0, SVG Export Plug-In . SVG Version: 6.00 Build 0)  -->
<svg version="1.1" id="Calque_1" xmlns="http://www.w3.org/2000/svg" xmlns:xlink="http://www.w3.org/1999/xlink" x="0px" y="0px"
	 viewBox="0 0 240.3 56.1" style="enable-background:new 0 0 240.3 56.1;" xml:space="preserve">
<style type="text/css">
	.st0{fill:#FFFFFF;}
</style>
<path class="st0" d="M240.3,37.4c-10-0.3-20.1-0.5-30.1-0.7c0.4-1.3,0.7-2.7,0.9-4c0.2-1.6,0.3-3.1,0.3-4.7c0-1.6-0.1-3.1-0.3-4.7
	c-0.2-1.4-0.5-2.7-0.9-4.1c5.6-0.2,11.2-0.3,16.8-0.6c-14.2-0.6-28.4-0.9-42.6-1.1c-1.9,0-3.8-0.1-5.6-0.1c0.3-1.2,0.6-2.3,0.7-3.5
	c0.2-1.6,0.3-3.1,0.3-4.7c0-1.6-0.1-3.1-0.3-4.7c-0.2-1.6-0.5-3.1-1.1-4.7c-0.6,1.6-0.9,3.1-1.1,4.7c-0.2,1.6-0.3,3.1-0.3,4.7
	c0,1.6,0.1,3.1,0.3,4.7c0.2,1.2,0.4,2.3,0.7,3.5c-5-0.1-9.9-0.1-14.9-0.2l-21.3-0.1c-8.8,0-17.6,0.1-26.3,0.1
	c0.3-1.1,0.5-2.3,0.7-3.4c0.2-1.6,0.3-3.1,0.3-4.7c0-1.6-0.1-3.1-0.3-4.7c-0.2-1.6-0.5-3.1-1.1-4.7c-0.6,1.6-0.9,3.1-1.1,4.7
	c-0.2,1.6-0.3,3.1-0.3,4.7c0,1.6,0.1,3.1,0.3,4.7c0.2,1.1,0.4,2.3,0.7,3.4c-5.2,0-10.3,0.1-15.5,0.2c-14.2,0.2-28.4,0.6-42.6,1.1
	c8.9,0.3,17.7,0.6,26.6,0.8c-0.4,1.3-0.7,2.6-0.8,3.9c-0.2,1.6-0.3,3.1-0.3,4.7c0,1.6,0.1,3.1,0.3,4.7c0.2,1.1,0.4,2.3,0.7,3.4
	c-7.6,0-15.2,0.1-22.8,0.2C40.1,36.5,20,36.8,0,37.4c20,0.5,40.1,0.9,60.1,1.1c18.2,0.2,36.3,0.3,54.5,0.3c-0.3,1.1-0.5,2.2-0.7,3.3
	c-0.2,1.6-0.3,3.1-0.3,4.7c0,1.6,0.1,3.1,0.3,4.7c0.2,1.6,0.5,3.1,1.1,4.7c0.6-1.6,0.9-3.1,1.1-4.7c0.2-1.6,0.3-3.1,0.3-4.7
	c0-1.6-0.1-3.1-0.3-4.7c-0.2-1.1-0.4-2.2-0.7-3.3c1.6,0,3.1,0,4.7,0l30-0.1c9.2-0.1,18.5-0.1,27.7-0.2c-0.4,1.2-0.6,2.4-0.7,3.5
	c-0.2,1.6-0.3,3.1-0.3,4.7c0,1.6,0.1,3.1,0.3,4.7c0.2,1.6,0.5,3.1,1.1,4.7c0.6-1.6,0.9-3.1,1.1-4.7c0.2-1.6,0.3-3.1,0.3-4.7
	c0-1.6-0.1-3.1-0.3-4.7c-0.2-1.2-0.4-2.4-0.7-3.5c0.5,0,1,0,1.5,0C200.3,38.3,220.3,37.9,240.3,37.4z M83.8,36.1
	c0.3-1.1,0.5-2.2,0.7-3.4c0.2-1.6,0.3-3.1,0.3-4.7c0-1.6-0.1-3.1-0.3-4.7c-0.2-1.3-0.4-2.6-0.8-3.8c5.2,0.1,10.3,0.2,15.5,0.3
	c14.2,0.2,28.4,0.3,42.6,0.3l4.5,0c-0.3,1.1-0.5,2.2-0.7,3.3c-0.2,1.6-0.3,3.1-0.3,4.7c0,1.6,0.1,3.1,0.3,4.7
	c0.2,1.1,0.4,2.2,0.7,3.3L120.2,36C108,36,95.9,36,83.8,36.1z M147.1,36c0.3-1.1,0.5-2.2,0.7-3.3c0.2-1.6,0.3-3.1,0.3-4.7
	c0-1.6-0.1-3.1-0.3-4.7c-0.2-1.1-0.4-2.2-0.7-3.3l15.9-0.1c7.1-0.1,14.2-0.1,21.3-0.2c8.5-0.1,17-0.3,25.4-0.5
	c-0.5,1.4-0.7,2.7-0.9,4.1c-0.2,1.6-0.3,3.1-0.3,4.7c0,1.6,0.1,3.1,0.3,4.7c0.2,1.3,0.4,2.6,0.9,4c-9.8-0.2-19.7-0.3-29.5-0.4
	c-10-0.1-20-0.2-30-0.2L147.1,36z"/>
</svg>
