<?xml version="1.0" encoding="utf-8"?>
<!-- Generator: Adobe Illustrator 22.1.0, SVG Export Plug-In . SVG Version: 6.00 Build 0)  -->
<svg version="1.1" id="Calque_1" xmlns="http://www.w3.org/2000/svg" xmlns:xlink="http://www.w3.org/1999/xlink" x="0px" y="0px"
	 viewBox="0 0 193.4 56.1" style="enable-background:new 0 0 193.4 56.1;" xml:space="preserve">
<style type="text/css">
	.st0{fill:#FFFFFF;}
</style>
<path class="st0" d="M156.4,36.2c-4.1-0.1-8.2-0.1-12.3-0.2c0.3-1.1,0.5-2.3,0.7-3.4c0.2-1.6,0.3-3.1,0.3-4.7c0-1.6-0.1-3.1-0.3-4.7
	c-0.2-1.3-0.4-2.6-0.8-3.9c8.9-0.2,17.7-0.5,26.6-0.8c-14.2-0.5-28.4-0.9-42.6-1.1c-5.2-0.1-10.3-0.1-15.5-0.2
	c0.3-1.1,0.5-2.3,0.7-3.4c0.2-1.6,0.3-3.1,0.3-4.7c0-1.6-0.1-3.1-0.3-4.7c-0.2-1.6-0.5-3.1-1.1-4.7c-0.6,1.6-0.9,3.1-1.1,4.7
	c-0.2,1.6-0.3,3.1-0.3,4.7c0,1.6,0.1,3.1,0.3,4.7c0.2,1.1,0.4,2.3,0.7,3.4c-8.8-0.1-17.6-0.1-26.3-0.1l-21.3,0.1
	c-5,0.1-9.9,0.1-14.9,0.2c0.3-1.2,0.6-2.3,0.7-3.5c0.2-1.6,0.3-3.1,0.3-4.7c0-1.6-0.1-3.1-0.3-4.7c-0.2-1.6-0.5-3.1-1.1-4.7
	c-0.6,1.6-0.9,3.1-1.1,4.7c-0.2,1.6-0.3,3.1-0.3,4.7c0,1.6,0.1,3.1,0.3,4.7c0.2,1.2,0.4,2.3,0.7,3.5c-1.9,0-3.8,0-5.6,0.1
	C28.4,17.7,14.2,18.1,0,18.7c14.2,0.6,28.4,0.9,42.6,1.1c7.1,0.1,14.2,0.2,21.3,0.2l15.9,0.1c-0.3,1.1-0.5,2.2-0.7,3.3
	c-0.2,1.6-0.3,3.1-0.3,4.7c0,1.6,0.1,3.1,0.3,4.7c0.2,1.2,0.4,2.4,0.8,3.6c-11.5,0.2-23,0.5-34.6,1.1c12.3,0.6,24.7,0.9,37,1.1
	c6.2,0.1,12.3,0.2,18.5,0.2l10.6,0c-0.3,1.1-0.5,2.2-0.7,3.3c-0.2,1.6-0.3,3.1-0.3,4.7c0,1.6,0.1,3.1,0.3,4.7
	c0.2,1.6,0.5,3.1,1.1,4.7c0.6-1.6,0.9-3.1,1.1-4.7c0.2-1.6,0.3-3.1,0.3-4.7c0-1.6-0.1-3.1-0.3-4.7c-0.2-1.1-0.4-2.2-0.7-3.3l7,0
	c12.3,0,24.7-0.1,37-0.3c12.3-0.2,24.7-0.5,37-1.1C181.1,36.7,168.7,36.4,156.4,36.2z M100.9,36c-6.2,0.1-12.3,0.1-18.5,0.2
	c-0.6,0-1.1,0-1.7,0c0.4-1.2,0.6-2.4,0.8-3.6c0.2-1.6,0.3-3.1,0.3-4.7c0-1.6-0.1-3.1-0.3-4.7c-0.2-1.1-0.4-2.2-0.7-3.3l4.5,0
	c14.2,0,28.4-0.1,42.6-0.3c5.2-0.1,10.3-0.2,15.5-0.3c-0.4,1.3-0.7,2.6-0.8,3.8c-0.2,1.6-0.3,3.1-0.3,4.7c0,1.6,0.1,3.1,0.3,4.7
	c0.2,1.1,0.4,2.3,0.7,3.4c-7.9-0.1-15.9-0.1-23.8-0.1L100.9,36z"/>
</svg>
